<?xml version="1.0" encoding="utf-8"?>
<!-- Generator: Adobe Illustrator 16.0.3, SVG Export Plug-In . SVG Version: 6.00 Build 0)  -->
<!DOCTYPE svg PUBLIC "-//W3C//DTD SVG 1.1//EN" "http://www.w3.org/Graphics/SVG/1.1/DTD/svg11.dtd">
<svg version="1.1" id="Capa_1" xmlns="http://www.w3.org/2000/svg" xmlns:xlink="http://www.w3.org/1999/xlink" x="0px" y="0px"
	 width="960px" height="560px" viewBox="0 0 960 560" enable-background="new 0 0 960 560" xml:space="preserve">
<g>
	<text transform="matrix(1 0 0 1 409.2114 333.7734)" fill="#262626" font-family="'Bebas-Regular'" font-size="207.1055">Paid It</text>
	<g>
		<path fill-rule="evenodd" clip-rule="evenodd" fill="#223A59" d="M241.478,164.788c0,9.213-0.063,18.429,0.047,27.642
			c0.025,2.104-0.646,2.757-2.705,3.014c-33.333,4.123-60.488,31.627-64.305,65.025c-4.652,40.711,22.091,76.572,62.514,83.422
			c15.541,2.635,30.576,0.318,44.764-6.654c1.911-0.941,2.706-0.703,3.815,0.975c10.095,15.266,20.223,30.51,30.465,45.674
			c1.353,2.004,1.024,2.746-0.952,3.826c-23.953,13.109-49.471,18.965-76.754,16.723c-32.767-2.695-61.052-15.426-84.294-38.652
			c-29.475-29.457-42.893-65.268-39.684-106.798c4.352-56.324,42.497-102.856,96.71-118.949c9.144-2.716,18.485-4.335,28.003-5.058
			c1.948-0.149,2.438,0.222,2.417,2.167C241.426,146.357,241.478,155.573,241.478,164.788z"/>
		<path fill-rule="evenodd" clip-rule="evenodd" fill="#9EB8DD" d="M384.123,271.866c-0.688,34.121-13.074,65.263-37.779,91.39
			c-4.5,4.76-9.406,9.094-14.544,13.174c-1.41,1.119-2.052,0.973-3.026-0.5c-10.333-15.6-20.708-31.17-31.146-46.695
			c-0.947-1.408-0.55-2.016,0.525-2.98c17.884-16.08,26.503-36.145,25.728-60.195c-0.182-5.637-1.045-11.203-2.705-16.592
			c-0.592-1.927-0.126-2.668,1.638-3.419c17.003-7.211,33.982-14.476,50.93-21.818c1.778-0.771,2.389-0.491,3.007,1.317
			C381.686,239.998,384.041,254.857,384.123,271.866z"/>
		<path fill-rule="evenodd" clip-rule="evenodd" fill="#6396EA" d="M258.253,134.736c25.85,1.971,49.114,10.339,69.9,25.392
			c17.271,12.503,30.834,28.249,40.718,47.17c0.901,1.724,0.948,2.382-1.036,3.219c-17.019,7.201-33.995,14.498-50.943,21.859
			c-1.822,0.792-2.549,0.427-3.563-1.206c-12.523-20.197-30.462-32.314-54.046-35.868c-1.901-0.287-2.962-0.632-2.944-3.107
			c0.147-18.316,0.08-36.637,0.081-54.953C256.42,135.824,256.05,134.08,258.253,134.736z"/>
		<path fill-rule="evenodd" clip-rule="evenodd" fill="#262626" d="M238.604,308.582c0-7.85,0-15.279,0-22.713
			c0-3.068-0.111-6.146,0.043-9.208c0.088-1.758-0.588-2.434-2.179-3.021c-20.06-7.381-26.18-31.344-12.131-47.386
			c3.164-3.614,7.086-6.241,11.66-7.626c2.267-0.686,2.882-1.85,2.626-3.96c-0.11-0.906-0.074-1.844-0.003-2.76
			c0.194-2.531,2.023-4.301,4.411-4.1c2.428,0.205,3.995,1.461,4.07,4.092c0.026,0.919,0.079,1.849-0.011,2.761
			c-0.13,1.34,0.374,1.792,1.724,1.721c1.153-0.061,2.019-0.106,1.895-1.615c-0.084-1.016-0.039-2.048,0.027-3.067
			c0.163-2.469,1.731-3.738,3.984-3.872c2.455-0.149,4.777,1.359,4.379,3.66c-0.979,5.642,2.379,7.17,6.509,9.3
			c9.314,4.81,14.821,12.64,15.788,23.29c0.43,4.736-1.487,7.457-5.29,7.836c-3.77,0.376-6.262-1.968-6.642-6.648
			c-0.541-6.637-4.069-11.039-9.74-14.151c-0.694,1.031-0.411,1.961-0.414,2.83c-0.024,9.621,0,19.24-0.032,28.861
			c-0.005,1.436,0.167,2.266,1.863,2.879c12.631,4.597,19.818,14.738,19.854,27.669c0.036,12.869-7.118,22.986-19.779,27.715
			c-1.549,0.582-2.088,1.285-1.945,2.838c0.112,1.219,0.108,2.465-0.012,3.68c-0.243,2.496-1.718,3.912-4.188,4.078
			c-2.351,0.162-4.162-1.646-4.349-4.182c-0.076-1.018-0.05-2.047-0.035-3.07c0.022-1.455-1.031-1.197-1.926-1.275
			c-1.071-0.092-1.782,0.092-1.668,1.426c0.085,1.016,0.038,2.047,0.005,3.068c-0.083,2.676-1.826,3.951-4.157,4.002
			c-2.363,0.055-4.603-1.365-4.208-3.848c0.826-5.189-1.932-6.914-6.06-8.955c-9.972-4.924-15.68-13.174-16.253-24.52
			c-0.209-4.105,1.911-6.523,5.463-6.736c3.684-0.219,6.087,1.74,6.379,5.82C228.758,300.35,232.126,305.17,238.604,308.582z
			 M228.66,247.188c0.302,6.218,4.526,12.245,9.817,13.861c0-10.002,0-19.968,0-30.18
			C231.984,233.594,228.304,239.836,228.66,247.188z M269.176,294.629c0.448-6.768-2.331-12.049-8.069-15.75
			c-1.638-1.056-1.829-0.254-1.825,1.201c0.024,9.384,0.012,18.769,0.012,28.849C265.396,305.553,268.755,301.002,269.176,294.629z
			 M247.08,261.47c-0.015,1.382,0.077,2.313,1.863,2.32c1.643,0.006,1.771-0.816,1.768-2.096c-0.026-10.413-0.025-20.822,0-31.233
			c0.001-1.251-0.08-2.145-1.722-2.197c-1.799-0.061-1.922,0.877-1.907,2.282c0.052,5.204,0.02,10.409,0.02,15.615
			C247.101,251.263,247.134,256.367,247.08,261.47z M247.082,309.057c-0.013,1.313,0.16,2.07,1.781,2.047
			c1.543-0.02,1.86-0.652,1.854-2.027c-0.039-10.414-0.059-20.826,0.019-31.239c0.012-1.643-0.632-2.099-2.083-2.225
			c-1.911-0.164-1.542,1.146-1.545,2.205c-0.014,5.206-0.007,10.413-0.005,15.62C247.103,298.645,247.131,303.85,247.082,309.057z"
			/>
		<path fill-rule="evenodd" clip-rule="evenodd" fill="#6396EA" d="M263.693,165.477c0-6.856,0.063-13.712-0.041-20.563
			c-0.028-1.886,0.338-2.442,2.365-2.128c39.795,6.169,70.476,26.211,92.1,60.191c1.498,2.354,1.4,3.28-1.365,4.423
			c-12.256,5.073-24.424,10.364-36.576,15.688c-1.949,0.854-2.922,0.642-4.223-1.156c-12.422-17.192-28.976-28.213-49.74-32.763
			c-1.835-0.403-2.639-1.018-2.586-3.131C263.802,179.188,263.693,172.33,263.693,165.477z"/>
	</g>
</g>
</svg>
